<svg width="69" height="31" viewBox="0 0 69 31" fill="none" xmlns="http://www.w3.org/2000/svg">
<path d="M28.2529 3.55176C28.0186 3.72266 27.7891 3.90576 27.5645 4.10107C27.3398 4.29639 27.125 4.49658 26.9199 4.70166C26.7148 4.90674 26.5195 5.11182 26.334 5.31689C26.1533 5.52197 25.9873 5.71973 25.8359 5.91016C25.6504 6.13477 25.4746 6.35693 25.3086 6.57666C25.1426 6.79639 24.9839 7.01855 24.8325 7.24316C25.0376 7.52637 25.2402 7.80225 25.4404 8.0708C25.6455 8.33447 25.8506 8.59814 26.0557 8.86182C26.2266 9.08154 26.4048 9.30859 26.5903 9.54297C26.7808 9.77246 26.9712 9.99707 27.1616 10.2168C27.3521 10.4365 27.5376 10.644 27.7183 10.8394C27.9038 11.0298 28.0771 11.1958 28.2383 11.3374L28.2456 13H22.4448L20.3721 8.30518V13H14.7471V9.82129L15.6846 9.63818V5.11182L14.7471 4.92871V1.75H20.3721V6.26172L22.4448 1.75H28.2456L28.2529 3.55176ZM34.4993 13.1318C33.9036 13.1318 33.3274 13.0952 32.7708 13.022C32.219 12.9487 31.699 12.812 31.2107 12.6118C30.7273 12.4116 30.2854 12.1553 29.8851 11.8428C29.4847 11.5254 29.1404 11.147 28.8523 10.7075C28.5643 10.2632 28.3396 9.75537 28.1785 9.18408C28.0223 8.60791 27.9441 7.96094 27.9441 7.24316C27.9441 6.56934 28.0223 5.96143 28.1785 5.41943C28.3348 4.87744 28.5545 4.39648 28.8377 3.97656C29.1209 3.55664 29.4603 3.19531 29.8558 2.89258C30.2562 2.58984 30.698 2.34326 31.1814 2.15283C31.6697 1.95752 32.1922 1.81348 32.7488 1.7207C33.3104 1.62793 33.8938 1.58154 34.4993 1.58154C35.1048 1.58154 35.6883 1.62793 36.2498 1.7207C36.8113 1.81348 37.3362 1.95752 37.8245 2.15283C38.3128 2.34814 38.7547 2.59717 39.1502 2.8999C39.5506 3.20264 39.8924 3.56396 40.1756 3.98389C40.4588 4.40381 40.6785 4.88477 40.8348 5.42676C40.991 5.96387 41.0691 6.56934 41.0691 7.24316C41.0691 8.29785 40.8958 9.20361 40.5491 9.96045C40.2073 10.7124 39.7386 11.3276 39.1429 11.8062C38.5472 12.2847 37.8514 12.6265 37.0555 12.8315C36.2596 13.0317 35.4075 13.1318 34.4993 13.1318ZM34.4993 4.92871C34.1868 4.92871 33.9231 4.97021 33.7083 5.05322C33.4983 5.13135 33.3226 5.23633 33.181 5.36816C33.0442 5.5 32.9393 5.64893 32.866 5.81494C32.7928 5.98096 32.7366 6.14941 32.6976 6.32031C32.6634 6.49121 32.6438 6.65723 32.639 6.81836C32.6341 6.97949 32.6316 7.12109 32.6316 7.24316C32.6316 7.36523 32.6341 7.50684 32.639 7.66797C32.6438 7.8291 32.6634 7.99756 32.6976 8.17334C32.7366 8.34424 32.7928 8.51514 32.866 8.68604C32.9393 8.85693 33.0442 9.01074 33.181 9.14746C33.3226 9.2793 33.4983 9.38672 33.7083 9.46973C33.9231 9.55273 34.1868 9.59424 34.4993 9.59424C34.8118 9.59424 35.073 9.55273 35.283 9.46973C35.4979 9.38672 35.6761 9.2793 35.8177 9.14746C35.9593 9.01074 36.0667 8.85693 36.1399 8.68604C36.2181 8.51514 36.2742 8.34424 36.3084 8.17334C36.3426 7.99756 36.3621 7.8291 36.367 7.66797C36.3768 7.50684 36.3816 7.36523 36.3816 7.24316C36.3816 7.12109 36.3768 6.97949 36.367 6.81836C36.3621 6.65723 36.3426 6.49121 36.3084 6.32031C36.2742 6.14941 36.2181 5.98096 36.1399 5.81494C36.0667 5.64893 35.9593 5.5 35.8177 5.36816C35.6761 5.23633 35.4979 5.13135 35.283 5.05322C35.073 4.97021 34.8118 4.92871 34.4993 4.92871ZM45.2574 7.51416V9.63818L46.1949 9.81396V13H41.5074V9.82129L42.4449 9.63818V5.11182L41.5074 4.92871V1.75H47.1324L50.8824 7.51416V5.12646L49.9449 4.92871V1.75H54.6324V4.92871L53.6949 5.11182V9.63818L54.6324 9.82129V13H49.0001L45.2574 7.51416ZM67.5805 5.11182C67.5756 5.26807 67.5731 5.42187 67.5731 5.57324C67.5731 5.71973 67.5731 5.86377 67.5731 6.00537V7.24316C67.5731 8.27832 67.4315 9.17188 67.1483 9.92383C66.87 10.6709 66.4867 11.2886 65.9984 11.7769C65.515 12.2603 64.9486 12.6069 64.2992 12.8169C63.6498 13.0269 62.9589 13.1318 62.2265 13.1318C61.6552 13.1318 61.1059 13.0928 60.5785 13.0146C60.0561 12.9414 59.5678 12.8022 59.1137 12.5972C58.6596 12.3872 58.247 12.1235 57.8759 11.8062C57.5048 11.4839 57.185 11.103 56.9164 10.6636C56.6527 10.2192 56.4477 9.71387 56.3012 9.14746C56.1596 8.58105 56.0888 7.94629 56.0888 7.24316V5.11182L55.1513 4.92871V1.75H61.2377V4.92871L60.3002 5.11182V6.05664C60.3002 6.17871 60.3002 6.30322 60.3002 6.43018C60.3002 6.55225 60.3002 6.66699 60.3002 6.77441C60.3051 6.88184 60.3075 6.97705 60.3075 7.06006C60.3075 7.14307 60.3075 7.2041 60.3075 7.24316C60.3075 7.36523 60.31 7.50684 60.3148 7.66797C60.3197 7.8291 60.3393 7.99756 60.3734 8.17334C60.4125 8.34424 60.4687 8.51514 60.5419 8.68604C60.6151 8.85693 60.7201 9.01074 60.8568 9.14746C60.9984 9.2793 61.1742 9.38672 61.3842 9.46973C61.599 9.55273 61.8627 9.59424 62.1752 9.59424C62.4877 9.59424 62.7489 9.55273 62.9589 9.46973C63.1737 9.38672 63.352 9.2793 63.4936 9.14746C63.6352 9.01074 63.7426 8.85693 63.8158 8.68604C63.8939 8.51514 63.9501 8.34424 63.9843 8.17334C64.0185 7.99756 64.038 7.8291 64.0429 7.66797C64.0526 7.50684 64.0575 7.36523 64.0575 7.24316C64.0575 7.2041 64.0575 7.14307 64.0575 7.06006C64.0575 6.97705 64.0551 6.88184 64.0502 6.77441C64.0502 6.66699 64.0502 6.55225 64.0502 6.43018C64.0502 6.30322 64.0502 6.17871 64.0502 6.05664V5.11182L63.1127 4.92871V1.75H68.518V4.92871L67.5805 5.11182Z" fill="#EEEEEE"/>
<path d="M24.0415 15.75C24.813 15.9355 25.3867 16.2407 25.7627 16.6655C26.1436 17.0903 26.334 17.6616 26.334 18.3794C26.334 18.8579 26.2827 19.2607 26.1802 19.5879C26.0776 19.9102 25.9482 20.1787 25.792 20.3936C25.6357 20.6035 25.4648 20.7671 25.2793 20.8843C25.0986 20.9966 24.9302 21.0796 24.7739 21.1333C24.6177 21.187 24.4834 21.2188 24.3711 21.2285C24.2637 21.2383 24.2075 21.2432 24.2026 21.2432C24.3931 21.2529 24.5957 21.2749 24.8105 21.3091C25.0303 21.3433 25.2476 21.397 25.4624 21.4702C25.6772 21.5435 25.8823 21.6387 26.0776 21.7559C26.2729 21.873 26.4438 22.0195 26.5903 22.1953C26.7417 22.3662 26.8613 22.5713 26.9492 22.8105C27.0371 23.0498 27.0811 23.3257 27.0811 23.6382C27.0811 24.1167 27.02 24.561 26.8979 24.9712C26.7808 25.3813 26.5708 25.7378 26.2681 26.0405C25.9702 26.3384 25.5625 26.5728 25.0449 26.7437C24.5273 26.9146 23.873 27 23.082 27H14.5786V23.8213L15.5161 23.6382V18.8408L14.5786 18.6577V15.75H24.0415ZM22.3936 19.3535C22.3936 19.1045 22.3496 18.9141 22.2617 18.7822C22.1787 18.6455 22.0664 18.5454 21.9248 18.4819C21.7832 18.4185 21.6221 18.3818 21.4414 18.3721C21.2607 18.3623 21.0776 18.3574 20.8921 18.3574H20.2036V20.4595H20.8921C21.0776 20.4595 21.2607 20.4546 21.4414 20.4448C21.6221 20.4302 21.7832 20.3887 21.9248 20.3203C22.0664 20.252 22.1787 20.1445 22.2617 19.998C22.3496 19.8467 22.3936 19.6318 22.3936 19.3535ZM22.3936 23.0083C22.3936 22.7593 22.3496 22.5688 22.2617 22.437C22.1787 22.3052 22.0664 22.2075 21.9248 22.144C21.7832 22.0806 21.6221 22.0439 21.4414 22.0342C21.2607 22.0244 21.0776 22.0195 20.8921 22.0195H20.2036V24.1216H20.8921C21.0776 24.1216 21.2607 24.1167 21.4414 24.1069C21.6221 24.0923 21.7832 24.0508 21.9248 23.9824C22.0664 23.9141 22.1787 23.8042 22.2617 23.6528C22.3496 23.5015 22.3936 23.2866 22.3936 23.0083ZM39.4432 19.1118C39.4383 19.2681 39.4358 19.4219 39.4358 19.5732C39.4358 19.7197 39.4358 19.8638 39.4358 20.0054V21.2432C39.4358 22.2783 39.2942 23.1719 39.011 23.9238C38.7327 24.6709 38.3494 25.2886 37.8611 25.7769C37.3777 26.2603 36.8113 26.6069 36.1619 26.8169C35.5125 27.0269 34.8216 27.1318 34.0892 27.1318C33.5179 27.1318 32.9686 27.0928 32.4412 27.0146C31.9187 26.9414 31.4305 26.8022 30.9764 26.5972C30.5223 26.3872 30.1097 26.1235 29.7386 25.8062C29.3675 25.4839 29.0477 25.103 28.7791 24.6636C28.5154 24.2192 28.3104 23.7139 28.1639 23.1475C28.0223 22.5811 27.9515 21.9463 27.9515 21.2432V19.1118L27.014 18.9287V15.75H33.1004V18.9287L32.1629 19.1118V20.0566C32.1629 20.1787 32.1629 20.3032 32.1629 20.4302C32.1629 20.5522 32.1629 20.667 32.1629 20.7744C32.1678 20.8818 32.1702 20.9771 32.1702 21.0601C32.1702 21.1431 32.1702 21.2041 32.1702 21.2432C32.1702 21.3652 32.1727 21.5068 32.1775 21.668C32.1824 21.8291 32.202 21.9976 32.2361 22.1733C32.2752 22.3442 32.3313 22.5151 32.4046 22.686C32.4778 22.8569 32.5828 23.0107 32.7195 23.1475C32.8611 23.2793 33.0369 23.3867 33.2469 23.4697C33.4617 23.5527 33.7254 23.5942 34.0379 23.5942C34.3504 23.5942 34.6116 23.5527 34.8216 23.4697C35.0364 23.3867 35.2146 23.2793 35.3562 23.1475C35.4979 23.0107 35.6053 22.8569 35.6785 22.686C35.7566 22.5151 35.8128 22.3442 35.847 22.1733C35.8812 21.9976 35.9007 21.8291 35.9056 21.668C35.9153 21.5068 35.9202 21.3652 35.9202 21.2432C35.9202 21.2041 35.9202 21.1431 35.9202 21.0601C35.9202 20.9771 35.9178 20.8818 35.9129 20.7744C35.9129 20.667 35.9129 20.5522 35.9129 20.4302C35.9129 20.3032 35.9129 20.1787 35.9129 20.0566V19.1118L34.9754 18.9287V15.75H40.3807V18.9287L39.4432 19.1118ZM46.5465 24.1875C46.7809 24.1875 47.0006 24.1606 47.2057 24.1069C47.4107 24.0483 47.6012 23.9751 47.777 23.8872C47.9527 23.7993 48.1114 23.6992 48.253 23.5869C48.3995 23.4746 48.5265 23.3623 48.6339 23.25H49.857V27H40.9215V23.8213L41.859 23.6382V19.1118L40.9215 18.9287V15.75H47.484V18.9287L46.5465 19.1118V24.1875Z" fill="#FFD369"/>
<path d="M5.05859 20.1641C6.81641 20.1641 7.69531 20.8047 7.69531 22.0859C7.69531 23.3672 6.81641 24.0078 5.05859 24.0078C4.80078 24.0078 4.55469 23.957 4.32031 23.8555C4.08594 23.7539 3.87891 23.6172 3.69922 23.4453C3.52734 23.2734 3.39062 23.0742 3.28906 22.8477C3.1875 22.6133 3.13672 22.3633 3.13672 22.0977C3.13672 21.832 3.1875 21.582 3.28906 21.3477C3.39062 21.1133 3.52734 20.9102 3.69922 20.7383C3.87891 20.5586 4.08594 20.418 4.32031 20.3164C4.55469 20.2148 4.80078 20.1641 5.05859 20.1641ZM3.98047 21.0781C3.73828 21.3438 3.61719 21.6797 3.61719 22.0859C3.61719 22.2891 3.64844 22.4766 3.71094 22.6484C3.78125 22.8203 3.87109 22.9727 3.98047 23.1055C4.09766 23.2383 4.23047 23.3398 4.37891 23.4102C4.53516 23.4883 4.70312 23.5273 4.88281 23.5273C5.0625 23.5273 5.23047 23.4883 5.38672 23.4102C5.54297 23.332 5.67578 23.2266 5.78516 23.0938C5.90234 22.9609 5.99219 22.8086 6.05469 22.6367C6.125 22.4648 6.16016 22.2812 6.16016 22.0859C6.16016 21.8906 6.125 21.707 6.05469 21.5352C5.99219 21.3633 5.90234 21.2109 5.78516 21.0781C5.67578 20.9453 5.54297 20.8398 5.38672 20.7617C5.23047 20.6836 5.0625 20.6445 4.88281 20.6445C4.52344 20.6445 4.22266 20.7891 3.98047 21.0781ZM6.47656 4.90625C8.08594 4.90625 9.42969 5.28516 10.5078 6.04297C11.5938 6.80078 12.1367 7.86719 12.1367 9.24219C12.1367 10.0781 11.9453 10.8203 11.5625 11.4688C11.1797 12.1172 10.7148 12.6641 10.168 13.1094C9.62109 13.5469 9.07422 13.9688 8.52734 14.375C7.98828 14.7812 7.52734 15.2578 7.14453 15.8047C6.76172 16.3438 6.57031 16.9492 6.57031 17.6211V19.4023H3.85156V17.2695C3.85156 16.4648 3.98438 15.7539 4.25 15.1367C4.51562 14.5195 4.83203 14.0117 5.19922 13.6133C5.56641 13.2148 5.93359 12.8203 6.30078 12.4297C6.66797 12.0391 6.98438 11.5547 7.25 10.9766C7.51562 10.3984 7.64844 9.73438 7.64844 8.98438C7.64844 8.42188 7.51172 7.92969 7.23828 7.50781C6.96484 7.08594 6.52734 6.83594 5.92578 6.75781C5.16797 6.75781 4.64453 6.96484 4.35547 7.37891C4.77734 7.66797 4.98828 8.09766 4.98828 8.66797C4.98828 9.16797 4.82031 9.58984 4.48438 9.93359C4.14844 10.2773 3.71484 10.4492 3.18359 10.4492C2.58984 10.4492 2.12109 10.2852 1.77734 9.95703C1.43359 9.62891 1.26172 9.15234 1.26172 8.52734C1.26172 7.61328 1.71875 6.78125 2.63281 6.03125C3.54688 5.28125 4.82812 4.90625 6.47656 4.90625ZM5.63281 5.38672C4.57812 5.38672 3.67969 5.6875 2.9375 6.28906C2.20312 6.88281 1.83594 7.60547 1.83594 8.45703C1.83594 8.91797 1.97266 9.27734 2.24609 9.53516C2.51953 9.79297 2.86328 9.92188 3.27734 9.92188C3.39453 9.71094 3.39453 9.52734 3.27734 9.37109C2.87891 9.25391 2.67969 8.98047 2.67969 8.55078C2.67969 7.86328 2.92969 7.30859 3.42969 6.88672C3.9375 6.45703 4.66406 6.24219 5.60938 6.24219C6.49219 6.24219 7.13281 6.51562 7.53125 7.0625C7.92969 7.60938 8.12891 8.25 8.12891 8.98438C8.12891 9.75 7.99609 10.4297 7.73047 11.0234C7.46484 11.6172 7.14844 12.1133 6.78125 12.5117C6.41406 12.9102 6.04688 13.3164 5.67969 13.7305C5.3125 14.1367 4.99609 14.6367 4.73047 15.2305C4.46484 15.8164 4.33203 16.4961 4.33203 17.2695V18.9219H4.90625V17.6211C4.90625 16.9648 5.09766 16.3594 5.48047 15.8047C5.87109 15.2422 6.33594 14.75 6.875 14.3281C7.42188 13.8984 7.96484 13.4609 8.50391 13.0156C9.05078 12.5703 9.51562 12.0273 9.89844 11.3867C10.2891 10.7461 10.4844 10.0312 10.4844 9.24219C10.4844 7.88281 10.0391 6.90234 9.14844 6.30078C8.25781 5.69141 7.08594 5.38672 5.63281 5.38672Z" fill="#EEEEEE"/>
</svg>
